<svg width="32" height="29" viewBox="0 0 32 29" fill="none" xmlns="http://www.w3.org/2000/svg">
<path d="M17.9907 0.204102C25.7278 0.204102 32 6.47631 32 14.2133C32 21.9503 25.7278 28.2226 17.9907 28.2226V0.204102Z" fill="white" fill-opacity="0.1"/>
<path d="M18.9907 1.24196C25.7083 1.75261 31 7.36506 31 14.2133C31 21.0616 25.7083 26.6741 18.9907 27.1848V1.24196Z" stroke="#404040" stroke-width="2"/>
<path d="M8.07522 0C15.4834 2.23087 19.6817 10.0426 17.4509 17.4509C15.2218 24.859 7.4082 29.0573 0 26.8265L8.07522 0Z" fill="white" fill-opacity="0.1"/>
<path d="M8.73359 1.28215C15.0185 3.70792 18.4678 10.6056 16.4933 17.1625L16.4933 17.1627C14.5203 23.7198 7.8358 27.5688 1.25668 26.121L8.73359 1.28215Z" stroke="#404040" stroke-width="2"/>
</svg>
