<svg width="32" height="33" viewBox="0 0 32 33" fill="none" xmlns="http://www.w3.org/2000/svg">
<path fill-rule="evenodd" clip-rule="evenodd" d="M10.2029 27.5397C7.77852 27.5397 5.81363 25.5796 5.81363 23.1619C5.81363 20.7438 7.77852 18.7837 10.2029 18.7837C12.6273 18.7837 14.5922 20.7438 14.5922 23.1619C14.5922 25.5796 12.6273 27.5397 10.2029 27.5397ZM10.1822 14.873C5.60545 14.873 1.89453 18.5739 1.89453 23.1391C1.89453 27.7046 5.60545 31.4055 10.1822 31.4055C14.7597 31.4055 18.4703 27.7046 18.4703 23.1391C18.4703 18.5739 14.7597 14.873 10.1822 14.873Z" fill="#FEFEFE" fill-opacity="0.1"/>
<path fill-rule="evenodd" clip-rule="evenodd" d="M7.05893 23.1617C7.05893 24.8888 8.46342 26.2946 10.2032 26.2946C11.9431 26.2946 13.3476 24.8888 13.3476 23.1617C13.3476 21.4342 11.943 20.0285 10.2032 20.0285C8.46349 20.0285 7.05893 21.4342 7.05893 23.1617ZM0.649902 23.1389C0.649902 17.8831 4.92131 13.6279 10.1826 13.6279C15.4445 13.6279 19.7156 17.8831 19.7156 23.1389C19.7156 28.3951 15.4446 32.6503 10.1826 32.6503C4.92128 32.6503 0.649902 28.3951 0.649902 23.1389ZM5.81396 23.1617C5.81396 25.5794 7.77885 27.5395 10.2032 27.5395C12.6276 27.5395 14.5925 25.5794 14.5925 23.1617C14.5925 20.7436 12.6276 18.7835 10.2032 18.7835C7.77885 18.7835 5.81396 20.7436 5.81396 23.1617ZM1.89487 23.1389C1.89487 18.5738 5.60578 14.8729 10.1826 14.8729C14.7601 14.8729 18.4706 18.5738 18.4706 23.1389C18.4706 27.7045 14.7601 31.4053 10.1826 31.4053C5.60578 31.4053 1.89487 27.7045 1.89487 23.1389Z" fill="white" fill-opacity="0.25"/>
<path fill-rule="evenodd" clip-rule="evenodd" d="M20.9341 23.0105H30.1394V19.5127H20.9341V23.0105Z" fill="#FEFEFE" fill-opacity="0.1"/>
<path fill-rule="evenodd" clip-rule="evenodd" d="M19.689 24.2553V18.2676H31.3842V24.2553H19.689ZM30.1392 23.0104H20.9339V19.5125H30.1392V23.0104Z" fill="white" fill-opacity="0.25"/>
<path fill-rule="evenodd" clip-rule="evenodd" d="M8.76318 11.0758H12.2698V1.89453H8.76318V11.0758Z" fill="#FEFEFE" fill-opacity="0.1"/>
<path fill-rule="evenodd" clip-rule="evenodd" d="M7.51855 12.3215V0.650391H13.5151V12.3215H7.51855ZM12.2702 11.0766H8.76352V1.89535H12.2702V11.0766Z" fill="white" fill-opacity="0.25"/>
<path fill-rule="evenodd" clip-rule="evenodd" d="M19.0742 15.7584L16.5518 13.3286L25.0779 4.52246L27.6004 6.95189L19.0742 15.7584Z" fill="#FEFEFE" fill-opacity="0.1"/>
<path fill-rule="evenodd" clip-rule="evenodd" d="M19.1048 17.5168L14.7891 13.3596L25.0472 2.76465L29.363 6.92135L19.1048 17.5168ZM19.074 15.7586L16.5517 13.3288L25.0778 4.5228L27.6003 6.95215L19.074 15.7586Z" fill="white" fill-opacity="0.25"/>
</svg>
