<svg width="243" height="50" viewBox="0 0 243 50" fill="none" xmlns="http://www.w3.org/2000/svg">
<path d="M89.7902 20.0706C89.2158 20.645 87.6523 22.017 84.302 22.017C79.7072 22.017 76.0059 19.2091 76.0059 14.04C76.0059 8.8709 79.7072 6.06299 84.302 6.06299C87.78 6.06299 89.4392 7.53076 89.4392 7.53076L88.099 11.7745C88.099 11.7745 86.5355 10.4344 84.6211 10.4344C82.7066 10.4344 81.0793 11.5512 81.0793 13.9762C81.0793 16.3693 82.8342 17.4542 84.6211 17.4542C86.4079 17.4542 87.6523 16.7203 88.3224 16.0502L89.7902 20.0706Z" fill="white"/>
<path d="M106.796 21.7297H101.723V16.0181H97.5109V21.7297H92.4375V6.28613H97.5109V11.8701H101.723V6.28613H106.796V21.7297Z" fill="white"/>
<path d="M124.379 21.7297H118.54L116.083 16.5925H115.444V21.7297H110.371V6.28613H117.104C119.018 6.28613 120.454 6.63712 121.571 7.40292C122.688 8.20062 123.485 9.54076 123.485 11.2C123.485 14.327 121.571 15.4438 120.901 15.8586L124.379 21.7297ZM117.806 10.4023C117.582 10.2108 117.231 10.1151 116.689 10.1151H115.413V12.7954H116.689C117.263 12.7954 117.614 12.6678 117.806 12.5401C118.061 12.3487 118.38 12.1253 118.38 11.4552C118.38 10.7852 118.029 10.5618 117.806 10.4023Z" fill="white"/>
<path d="M131.558 21.7297H126.484V6.28613H131.558V21.7297Z" fill="white"/>
<path d="M144.768 20.6764C143.524 21.6017 141.992 21.9846 140.205 21.9846C138.418 21.9846 136.344 21.506 134.238 19.9106L136.472 16.1135C137.908 17.326 139.918 17.8047 140.588 17.8047C141.258 17.8047 141.737 17.6132 141.737 17.1665C141.737 16.7198 141.162 16.5283 140.62 16.3688C140.046 16.2093 138.833 15.7944 138.386 15.6668C137.94 15.4754 137.046 15.1882 136.248 14.5181C135.451 13.8481 134.845 12.8908 134.845 11.2316C134.845 9.54046 135.706 8.26414 136.631 7.49834C137.557 6.70064 139.12 6.1582 141.162 6.1582C143.236 6.1582 145.342 6.89209 146.682 8.00887L144.768 11.5826C143.619 10.5615 141.896 10.1148 141.099 10.1148C140.301 10.1148 139.854 10.2743 139.854 10.753C139.854 11.1997 140.556 11.3592 140.939 11.4549C141.29 11.5826 142.247 11.8378 142.79 12.0293C143.332 12.2207 144.577 12.6675 145.374 13.3375C146.172 14.0076 146.842 15.0606 146.842 16.6879C146.81 18.2833 146.012 19.7191 144.768 20.6764Z" fill="white"/>
<path d="M161.04 10.2427H157.402V21.7616H152.329V10.2427H148.691V6.28613H161.04V10.2427Z" fill="white"/>
<path d="M170.55 22.0167C165.732 22.0167 162.158 19.0812 162.158 14.0397C162.158 8.99822 165.732 6.03076 170.55 6.03076C175.368 6.03076 178.942 8.99822 178.942 14.0397C178.942 19.0812 175.368 22.0167 170.55 22.0167ZM170.55 10.3064C168.54 10.3064 167.232 11.7742 167.232 13.9121C167.232 16.0499 168.54 17.5177 170.55 17.5177C172.56 17.5177 173.837 16.0499 173.837 13.9121C173.837 11.8061 172.56 10.3064 170.55 10.3064Z" fill="white"/>
<path d="M192.534 15.699C191.418 16.5925 189.918 16.9434 188.227 16.9434H186.568V21.7616H181.494V6.28613H188.259C189.95 6.28613 191.449 6.63712 192.566 7.53055C193.683 8.42398 194.321 9.76412 194.321 11.6148C194.289 13.4655 193.683 14.8056 192.534 15.699ZM188.642 10.4023C188.291 10.147 187.971 10.1151 187.397 10.1151H186.568V13.1464H187.397C187.971 13.1464 188.291 13.1145 188.642 12.8911C188.993 12.6358 189.216 12.2529 189.216 11.6467C189.184 11.0085 188.961 10.6256 188.642 10.4023Z" fill="white"/>
<path d="M211.2 21.7297H206.126V16.0181H201.915V21.7297H196.873V6.28613H201.946V11.8701H206.158V6.28613H211.232V21.7297H211.2Z" fill="white"/>
<path d="M225.526 21.7297H214.326V6.28613H225.303V10.2746H219.368V11.9658H224.952V15.9224H219.368V17.7092H225.526V21.7297Z" fill="white"/>
<path d="M242.342 21.7297H236.502L234.046 16.5925H233.407V21.7297H228.334V6.28613H235.067C236.981 6.28613 238.417 6.63712 239.534 7.40292C240.651 8.20062 241.448 9.54076 241.448 11.2C241.448 14.327 239.534 15.4438 238.864 15.8586L242.342 21.7297ZM235.769 10.4023C235.545 10.2108 235.194 10.1151 234.652 10.1151H233.375V12.7954H234.652C235.226 12.7954 235.577 12.6678 235.769 12.5401C236.024 12.3487 236.343 12.1253 236.343 11.4552C236.343 10.7852 235.992 10.5618 235.769 10.4023Z" fill="white"/>
<path d="M86.0883 40.5236C84.8438 41.4489 83.3123 41.8318 81.5254 41.8318C79.7386 41.8318 77.6645 41.3532 75.5586 39.7578L77.7922 35.9607C79.228 37.1732 81.2382 37.6518 81.9083 37.6518C82.5784 37.6518 83.057 37.4604 83.057 37.0137C83.057 36.567 82.4826 36.3755 81.9402 36.216C81.3659 36.0564 80.1534 35.6416 79.7066 35.514C79.2599 35.3225 78.3665 35.0354 77.5688 34.3653C76.7711 33.6952 76.1648 32.738 76.1648 31.0788C76.1648 29.3876 77.0264 28.1113 77.9517 27.3455C78.877 26.5478 80.4405 26.0054 82.4827 26.0054C84.5248 26.0054 86.6626 26.7393 88.0028 27.856L86.0883 31.4297C84.9077 30.4087 83.2165 29.962 82.4188 29.962C81.6211 29.962 81.1744 30.1215 81.1744 30.6001C81.1744 31.0469 81.8764 31.2064 82.2593 31.3021C82.6103 31.4297 83.5675 31.685 84.11 31.8765C84.6524 32.0679 85.8968 32.5146 86.6945 33.1847C87.4922 33.8548 88.1623 34.9077 88.1623 36.535C88.0985 38.0985 87.3008 39.5663 86.0883 40.5236Z" fill="white"/>
<path d="M105.999 41.5763H100.511L99.9046 39.4066H95.5013L94.9269 41.5763H89.6621L95.0227 26.1328H100.607L105.999 41.5763ZM98.8836 35.5138L97.7349 31.3657L96.5862 35.5138H98.8836Z" fill="white"/>
<path d="M123.038 41.5763H117.774L113.083 32.9611C113.083 32.9611 113.211 34.6523 113.211 35.7691V41.5763H108.297V26.1328H113.785L118.252 34.748C118.252 34.748 118.125 33.0569 118.125 31.9401V26.1328H123.038V41.5763Z" fill="white"/>
<path d="M137.715 30.0575H134.077V41.5763H129.004V30.0575H125.398V26.1328H137.747V30.0575H137.715Z" fill="white"/>
<path d="M153.19 41.5763H147.702L147.096 39.4066H142.693L142.118 41.5763H136.854L142.214 26.1328H147.798L153.19 41.5763ZM146.043 35.5138L144.894 31.3657L143.746 35.5138H146.043Z" fill="white"/>
<path d="M169.751 41.5763H164.486L159.796 32.9611C159.796 32.9611 159.924 34.6523 159.924 35.7691V41.5763H155.01V26.1328H160.498L164.965 34.748C164.965 34.748 164.837 33.0569 164.837 31.9401V26.1328H169.751V41.5763Z" fill="white"/>
<path d="M187.907 41.5763H182.419L181.813 39.4066H177.409L176.835 41.5763H171.57L176.931 26.1328H182.515L187.907 41.5763ZM180.76 35.5138L179.611 31.3657L178.462 35.5138H180.76Z" fill="white"/>
<path d="M192.279 41.8316C190.652 41.8316 189.535 40.9701 189.535 39.4066C189.535 37.8431 190.652 36.9497 192.279 36.9497C193.907 36.9497 195.023 37.8112 195.023 39.4066C195.023 41.002 193.907 41.8316 192.279 41.8316Z" fill="white"/>
<path d="M66.8156 50L33.4078 0L0 50H24.7607L18.6662 40.9062L33.4078 18.8577L48.1493 40.9062L42.023 50H66.8156Z" fill="white"/>
<path d="M28.0469 40.8107H38.7042L33.3755 32.8975L28.0469 40.8107Z" fill="white"/>
</svg>