<svg width="22" height="21" viewBox="0 0 22 21" fill="none" xmlns="http://www.w3.org/2000/svg">
<path d="M10.1009 2.81703C10.4676 2.07401 11.5271 2.07401 11.8938 2.81703L13.7028 6.48241C13.8484 6.77747 14.1299 6.98198 14.4555 7.02929L18.5005 7.61706C19.3205 7.73621 19.6479 8.74388 19.0546 9.32224L16.1276 12.1753C15.892 12.405 15.7845 12.7359 15.8401 13.0602L16.531 17.0889C16.6711 17.9055 15.8139 18.5283 15.0805 18.1427L11.4626 16.2406C11.1713 16.0875 10.8234 16.0875 10.5322 16.2406L6.91423 18.1427C6.18083 18.5283 5.32365 17.9055 5.46372 17.0889L6.15469 13.0602C6.21031 12.7359 6.10279 12.405 5.86718 12.1753L2.9402 9.32224C2.34686 8.74388 2.67427 7.73621 3.49424 7.61706L7.53923 7.02929C7.86484 6.98198 8.14633 6.77747 8.29194 6.48241L10.1009 2.81703Z" fill="white" fill-opacity="0.1"/>
<path d="M12.7906 2.37447C12.0571 0.888199 9.9377 0.888199 9.20418 2.37447L7.39528 6.03971L3.35044 6.62746C1.71025 6.86579 1.05533 8.88143 2.24218 10.0383L5.16905 12.8913L4.47811 16.9198C4.19793 18.5534 5.91254 19.7991 7.37957 19.0278L10.9974 17.1258L14.6152 19.0278C16.0822 19.7991 17.7968 18.5534 17.5167 16.9198L16.8257 12.8913L19.7526 10.0383C20.9394 8.88143 20.2845 6.86579 18.6443 6.62746L14.5995 6.03971L12.7906 2.37447Z" stroke="white" stroke-opacity="0.25" stroke-width="2"/>
</svg>
