<svg width="32" height="32" viewBox="0 0 32 32" fill="none" xmlns="http://www.w3.org/2000/svg">
<path d="M3.07882 22.1966C2.99556 22.1133 2.95394 21.9468 3.07882 21.822L4.619 20.1985C4.70225 20.1153 4.86876 20.0736 4.99364 20.1985C6.0343 21.1143 7.36635 21.6138 8.74002 21.6555C10.3218 21.6555 11.1127 21.0311 11.1127 20.1153C11.1127 19.3244 10.6548 18.8665 8.98978 18.7L7.57448 18.6167C4.95201 18.367 3.61996 16.9933 3.61996 14.8287C3.61996 12.3311 5.4099 10.7493 8.61514 10.7493C10.3635 10.7077 12.0701 11.2488 13.4438 12.3311C13.5687 12.4144 13.5687 12.5809 13.4854 12.7057L12.195 14.2876C12.1118 14.4124 11.9453 14.4124 11.8204 14.3292C10.8213 13.6632 9.65581 13.2885 8.44864 13.2469C7.15821 13.2469 6.49219 13.788 6.49219 14.5789C6.49219 15.3698 6.95008 15.7861 8.61514 15.9526L9.98882 16.0775C12.6945 16.3273 13.985 17.7426 13.985 19.8239C13.985 22.4047 12.1118 24.1947 8.57352 24.1947C5.95104 24.2363 4.11948 23.1956 3.07882 22.1966Z" fill="white" fill-opacity="0.15"/>
<path d="M20.3381 23.9836C17.7572 23.9836 16.7582 22.7348 16.7582 20.2372V13.4105C16.7582 13.3272 16.7166 13.244 16.6333 13.244H16.5917H15.7175C15.5926 13.244 15.4678 13.1191 15.4678 12.9942V11.2043C15.4678 11.0794 15.5926 10.9545 15.7175 10.9545H16.5917C16.6749 10.9545 16.7582 10.9129 16.7582 10.8296V10.788V7.24976C16.7582 7.12488 16.8831 7 17.008 7H19.4639C19.5888 7 19.7137 7.12488 19.7137 7.24976V10.788C19.7137 10.8713 19.7553 10.9545 19.8386 10.9545H19.8802H21.5869C21.7118 10.9545 21.8366 11.0794 21.8366 11.2043V12.9942C21.8366 13.1191 21.7118 13.244 21.5869 13.244H19.8802C19.7969 13.244 19.7137 13.2856 19.7137 13.3689V13.4105V20.0707C19.7137 20.9865 20.0883 21.2779 20.9208 21.2779H21.5869C21.7118 21.2779 21.8366 21.4028 21.8366 21.5277V23.6506C21.8366 23.7755 21.7118 23.9004 21.5869 23.9004L20.3381 23.9836Z" fill="white" fill-opacity="0.15"/>
<path d="M28.1896 23.9836C25.6088 23.9836 24.6098 22.7348 24.6098 20.2372V13.4105C24.6098 13.3272 24.5681 13.244 24.4849 13.244H24.4433H23.5691C23.4442 13.244 23.3193 13.1191 23.3193 12.9942V11.2043C23.3193 11.0794 23.4442 10.9545 23.5691 10.9545H24.4433C24.5265 10.9545 24.6098 10.9129 24.6098 10.8296V10.788V7.24976C24.6098 7.12488 24.7346 7 24.8595 7H27.3155C27.4404 7 27.5652 7.12488 27.5652 7.24976V10.788C27.5652 10.8713 27.6069 10.9545 27.6901 10.9545H27.7317H29.4384C29.5633 10.9545 29.6882 11.0794 29.6882 11.2043V12.9942C29.6882 13.1191 29.5633 13.244 29.4384 13.244H27.7317C27.6485 13.244 27.5652 13.2856 27.5652 13.3689V13.4105V20.0707C27.5652 20.9865 27.9399 21.2779 28.7724 21.2779H29.4384C29.5633 21.2779 29.6882 21.4028 29.6882 21.5277V23.6506C29.6882 23.7755 29.5633 23.9004 29.4384 23.9004L28.1896 23.9836Z" fill="white" fill-opacity="0.15"/>
<rect width="32" height="32" rx="4" fill="white" fill-opacity="0.1"/>
</svg>
