<svg width="20" height="20" viewBox="0 0 20 20" fill="none" xmlns="http://www.w3.org/2000/svg">
<path d="M19.116 3.15284C19.1035 3.1303 19.086 3.10776 19.0659 3.09023C18.9407 2.96502 18.7379 2.96502 18.6127 3.09023L14.2978 7.40506L12.5974 5.70467L16.9148 1.38734C16.9348 1.3673 16.9498 1.34727 16.9649 1.32473C17.055 1.17197 17.0049 0.976639 16.8522 0.886486C14.393 -0.565983 11.1725 -0.232917 9.05642 1.88067C7.37857 3.55853 6.82263 5.93757 7.39109 8.0762L0.0536247 15.4137C-0.021503 15.4888 -0.0164946 15.6115 0.0611373 15.6891L4.31086 19.9389C4.38849 20.0165 4.5137 20.0215 4.58633 19.9464L11.9213 12.6114C14.0624 13.1824 16.4415 12.6289 18.1218 10.9486C20.2354 8.83249 20.5685 5.61202 19.116 3.15284Z" fill="white" fill-opacity="0.2"/>
<path d="M18.8 3.61003L14.6514 7.75862L14.2978 8.11217L13.9443 7.75862L12.2439 6.05823L11.8903 5.70467L12.2439 5.35112L16.3934 1.20166C14.1548 -0.00214662 11.3032 0.343477 9.40998 2.23423C9.40991 2.2343 9.40984 2.23437 9.40977 2.23444M18.8 3.61003L7.39109 8.0762C6.82263 5.93757 7.37857 3.55853 9.05642 1.88067L9.40977 2.23444M18.8 3.61003C20.0048 5.84881 19.6595 8.7014 17.7683 10.595M18.8 3.61003L19.116 3.15284C20.5685 5.61202 20.2354 8.83249 18.1218 10.9486M9.40977 2.23444C7.86317 3.78119 7.34981 5.97452 7.87431 7.94776L7.9483 8.2261L7.74465 8.42976L0.626754 15.5476M9.40977 2.23444L0.626754 15.5476M0.626754 15.5476L0.414793 15.3357C0.511064 15.4321 0.547887 15.6265 0.407178 15.7672L0.626754 15.5476ZM0.626754 15.5476L4.45235 19.3732M0.626754 15.5476L11.9213 12.6114C14.0624 13.1824 16.4415 12.6289 18.1218 10.9486M4.45235 19.3732L4.23277 19.5928L4.23272 19.5928L4.2269 19.5988C4.22885 19.5968 4.23082 19.5948 4.23279 19.5928C4.37945 19.4477 4.57291 19.4938 4.66441 19.5853L4.45235 19.3732ZM4.45235 19.3732L11.5677 12.2579L11.7716 12.054L12.0501 12.1283C14.0261 12.6552 16.2193 12.144 17.7683 10.595M17.7683 10.595C17.7682 10.5951 17.7681 10.5952 17.7681 10.5952L18.1218 10.9486M17.7683 10.595L18.1218 10.9486" stroke="white" stroke-opacity="0.25"/>
</svg>
